<svg width="24" height="24" viewBox="0 0 24 24" fill="none" xmlns="http://www.w3.org/2000/svg">
<path fill-rule="evenodd" clip-rule="evenodd" d="M12 7.26279C12.0075 7.26303 12.015 7.26316 12.0226 7.26316C13.0595 7.26316 14.7045 7.42274 16.5351 8.78885C18.3271 10.1262 19.2003 12.3392 19.2797 15.7379C19.241 15.7421 19.1996 15.7463 19.1557 15.7504C18.7757 15.7855 18.2761 15.8069 17.7692 15.8192C17.2653 15.8315 16.7665 15.8346 16.3928 15.8346C16.2062 15.8346 16.0514 15.8338 15.9433 15.833C15.8893 15.8327 15.8471 15.8323 15.8185 15.832L15.7754 15.8315C15.7743 15.8315 15.7731 15.8315 15.772 15.8315C15.7703 15.8315 15.7686 15.8315 15.7669 15.8315H12.0226C12.015 15.8315 12.0075 15.8316 12 15.8318C11.9925 15.8316 11.985 15.8315 11.9774 15.8315H8.2331C8.23029 15.8315 8.22747 15.8315 8.22466 15.8315L8.18155 15.832C8.15291 15.8323 8.11065 15.8327 8.05665 15.833C7.94863 15.8338 7.79377 15.8346 7.60716 15.8346C7.23346 15.8346 6.73465 15.8315 6.23076 15.8192C5.72386 15.8069 5.22428 15.7855 4.84434 15.7504C4.80038 15.7463 4.75902 15.7421 4.72027 15.7379C4.79973 12.3392 5.67288 10.1262 7.46487 8.78885C9.29546 7.42274 10.9405 7.26316 11.9774 7.26316C11.985 7.26316 11.9925 7.26303 12 7.26279ZM12 17.1845C11.9925 17.1847 11.985 17.1849 11.9774 17.1849H8.23718L8.19505 17.1853C8.16521 17.1856 8.12165 17.186 8.06627 17.1864C7.99702 17.1869 7.90924 17.1874 7.80664 17.1877C7.87794 19.4423 9.72808 21.2481 12 21.2481C14.2719 21.2481 16.1221 19.4423 16.1934 17.1877C16.0908 17.1874 16.003 17.1869 15.9337 17.1864C15.8784 17.186 15.8348 17.1856 15.805 17.1853L15.7628 17.1849H12.0226C12.015 17.1849 12.0075 17.1847 12 17.1845ZM17.5475 17.1777C17.481 20.1845 15.0228 22.6015 12 22.6015C8.97724 22.6015 6.51901 20.1845 6.45251 17.1777C6.3682 17.1761 6.28313 17.1743 6.19784 17.1722C5.68217 17.1597 5.14604 17.1375 4.71958 17.098C4.50885 17.0785 4.30576 17.0531 4.13873 17.0179C4.05674 17.0006 3.96208 16.9766 3.87158 16.941C3.8128 16.9179 3.61983 16.8411 3.48454 16.6492C3.40409 16.5351 3.3609 16.3989 3.3609 16.2593C3.3609 12.3899 4.26932 9.4849 6.65543 7.70421C8.43435 6.37665 10.092 6.01615 11.3008 5.93237V2.07519C11.3008 1.70146 11.6037 1.3985 11.9774 1.3985C11.985 1.3985 11.9925 1.39862 12 1.39887C12.0075 1.39862 12.015 1.3985 12.0226 1.3985C12.3963 1.3985 12.6992 1.70146 12.6992 2.07519V5.93237C13.908 6.01615 15.5656 6.37665 17.3446 7.70421C19.7307 9.4849 20.6391 12.3899 20.6391 16.2593C20.6391 16.3989 20.5959 16.5351 20.5155 16.6492C20.3802 16.8411 20.1872 16.9179 20.1284 16.941C20.0379 16.9766 19.9433 17.0006 19.8613 17.0179C19.6942 17.0531 19.4911 17.0785 19.2804 17.098C18.854 17.1375 18.3178 17.1597 17.8022 17.1722C17.7169 17.1743 17.6318 17.1761 17.5475 17.1777Z" fill="white"/>
</svg>
